<?xml version="1.0" standalone="no"?>
<!DOCTYPE svg PUBLIC "-//W3C//DTD SVG 20010904//EN"
 "http://www.w3.org/TR/2001/REC-SVG-20010904/DTD/svg10.dtd">
<svg version="1.0" xmlns="http://www.w3.org/2000/svg"
 width="110.000000pt" height="110.000000pt" viewBox="0 0 110.000000 110.000000"
 preserveAspectRatio="xMidYMid meet">
<metadata>
Created by potrace 1.11, written by Peter Selinger 2001-2013
</metadata>
<g transform="translate(0.000000,110.000000) scale(0.100000,-0.100000)"
fill="#000000" stroke="none">
<path d="M526 1021 c-11 -4 -30 -35 -46 -77 -16 -40 -34 -70 -44 -72 -9 -2
-42 13 -75 32 -104 64 -132 46 -105 -67 9 -41 15 -81 11 -89 -4 -11 -28 -17
-83 -21 -123 -9 -134 -42 -39 -118 30 -24 55 -51 55 -60 0 -10 -28 -42 -62
-72 -58 -51 -61 -57 -51 -80 10 -22 19 -25 93 -31 59 -6 83 -12 87 -23 3 -8
-2 -49 -12 -91 -17 -73 -17 -76 1 -89 27 -20 39 -17 110 28 74 47 79 46 108
-31 26 -67 44 -90 70 -90 29 0 37 10 65 82 34 84 38 86 112 38 71 -45 89 -48
112 -22 15 16 15 23 -3 92 -13 50 -16 78 -9 86 5 7 42 15 82 19 40 4 78 12 85
17 26 22 12 53 -43 98 -30 25 -57 52 -60 60 -4 10 15 33 54 68 42 37 61 61 61
77 0 32 -6 34 -94 42 -42 3 -80 11 -85 17 -6 7 -2 40 9 86 28 119 -3 140 -105
74 -31 -19 -63 -34 -72 -32 -10 2 -28 30 -43 67 -27 68 -53 93 -84 82z m108
-245 c116 -48 178 -177 142 -297 -39 -134 -172 -206 -310 -168 -57 16 -138
101 -155 162 -16 56 -10 141 13 185 22 43 74 92 121 113 48 22 142 25 189 5z"/>
<path d="M448 720 c-69 -37 -115 -126 -103 -199 30 -177 246 -229 359 -88 28
35 31 46 31 111 0 64 -4 78 -29 114 -53 78 -174 106 -258 62z"/>
</g>
</svg>
