<?xml version="1.0" standalone="no"?>
<!DOCTYPE svg PUBLIC "-//W3C//DTD SVG 20010904//EN"
 "http://www.w3.org/TR/2001/REC-SVG-20010904/DTD/svg10.dtd">
<svg version="1.0" xmlns="http://www.w3.org/2000/svg"
 width="260.000000pt" height="260.000000pt" viewBox="0 0 260.000000 260.000000"
 preserveAspectRatio="xMidYMid meet">
<metadata>
Created by potrace 1.11, written by Peter Selinger 2001-2013
</metadata>
<g transform="translate(0.000000,260.000000) scale(0.100000,-0.100000)"
fill="#000000" stroke="none">
<path d="M1274 2558 c-5 -7 -2 -8 6 -3 8 5 11 4 6 -3 -3 -6 -14 -11 -24 -11
-67 -2 -90 -21 -87 -74 2 -29 0 -34 -13 -30 -10 4 -13 2 -8 -5 3 -6 2 -13 -4
-17 -6 -4 -8 -11 -5 -16 4 -5 -1 -12 -9 -15 -9 -3 -13 -10 -10 -15 3 -5 0 -9
-7 -9 -9 0 -10 -3 -2 -11 12 -12 5 -52 -7 -44 -10 6 -22 -24 -15 -36 3 -4 -3
-14 -13 -20 -12 -8 -17 -21 -16 -43 2 -24 -3 -35 -19 -46 -30 -18 -107 -22
-107 -5 0 7 -7 15 -15 19 -8 3 -15 0 -15 -6 0 -7 -15 4 -32 23 -18 19 -40 34
-48 34 -8 0 -23 8 -34 19 -15 15 -20 16 -27 5 -5 -8 -9 -9 -9 -4 0 6 -12 24
-26 40 -15 17 -23 23 -18 15 6 -12 5 -13 -8 -3 -8 7 -18 10 -21 6 -4 -3 -9 2
-13 11 -9 22 -122 23 -130 1 -4 -8 -10 -12 -16 -9 -5 3 -12 -3 -15 -15 -3 -11
-9 -18 -14 -15 -5 3 -9 -5 -10 -18 -2 -47 3 -83 14 -90 5 -3 11 -28 11 -55 1
-26 5 -47 11 -45 15 5 24 -31 13 -52 -7 -13 -6 -21 2 -26 7 -4 9 -13 6 -19 -4
-6 -1 -11 7 -11 11 0 14 -16 14 -72 -1 -105 -12 -114 -143 -113 -54 0 -105 5
-113 9 -10 6 -12 5 -7 -3 5 -8 0 -10 -18 -7 -19 3 -29 -1 -36 -15 -8 -15 -15
-17 -29 -9 -10 5 -21 6 -25 3 -3 -4 -23 -7 -44 -7 -24 -1 -36 -6 -35 -14 2 -6
-3 -11 -10 -9 -6 1 -11 -4 -10 -10 2 -7 -4 -13 -12 -13 -8 0 -16 -4 -16 -10
-6 -43 -3 -58 15 -77 12 -15 15 -23 7 -23 -8 0 -3 -10 10 -25 13 -13 29 -25
36 -25 7 0 10 -7 7 -15 -5 -11 1 -15 26 -15 18 0 29 -4 25 -10 -3 -5 1 -10 9
-10 9 0 16 -4 16 -8 0 -13 33 -48 53 -55 9 -3 17 -13 17 -21 0 -13 22 -28 46
-30 18 -2 40 -30 48 -59 4 -16 3 -26 -2 -23 -5 3 -6 -9 -4 -27 3 -18 1 -29 -2
-26 -8 8 -62 -42 -58 -53 1 -5 -2 -8 -8 -8 -5 0 -31 -22 -57 -48 -27 -27 -54
-47 -61 -44 -6 2 -15 -3 -18 -12 -3 -9 -12 -16 -20 -16 -8 0 -13 -6 -12 -12 2
-7 -2 -12 -9 -11 -6 2 -15 -6 -18 -17 -4 -11 -11 -18 -16 -15 -5 4 -9 -1 -9
-9 0 -9 -6 -16 -13 -16 -8 0 -13 -14 -12 -39 0 -22 2 -38 5 -36 3 2 12 0 20
-6 12 -7 12 -9 1 -9 -11 0 -11 -3 -1 -15 6 -8 8 -20 4 -26 -4 -7 -3 -9 3 -6 6
4 16 1 21 -6 8 -9 43 -13 122 -12 86 0 110 -2 110 -13 0 -7 4 -11 9 -7 5 3 13
1 16 -5 5 -8 11 -7 21 1 8 6 14 7 14 2 0 -11 50 -10 68 1 7 4 12 3 12 -3 0 -5
11 -8 25 -6 16 1 25 -3 25 -11 0 -8 6 -14 14 -14 11 0 13 -18 12 -80 0 -50 -5
-80 -12 -80 -6 0 -11 -6 -11 -12 0 -7 -4 -21 -8 -30 -4 -10 -3 -18 3 -18 5 0
7 -11 5 -25 -3 -13 -10 -23 -17 -22 -7 1 -11 -16 -12 -46 0 -34 -6 -51 -19
-61 -13 -9 -15 -15 -6 -20 9 -6 9 -11 0 -22 -9 -11 -8 -14 2 -14 11 0 11 -2 1
-8 -20 -13 23 -62 54 -62 14 0 22 -4 19 -10 -6 -10 1 -12 43 -13 12 0 22 -5
22 -11 0 -6 5 -4 10 4 5 8 10 11 10 7 0 -4 9 -3 20 3 11 6 18 15 15 21 -6 9
10 19 40 23 9 1 20 8 25 15 4 8 13 10 19 7 6 -4 11 -2 11 5 0 7 3 10 6 6 3 -3
16 5 28 18 12 13 34 27 49 30 15 4 24 11 21 16 -5 8 9 13 28 10 4 0 4 7 1 16
-5 13 -2 15 15 11 14 -4 27 0 35 11 6 9 18 16 25 15 6 -1 17 -2 23 -3 5 0 7
-6 4 -11 -3 -6 -1 -10 5 -10 16 0 55 -39 47 -46 -4 -4 -2 -13 4 -21 9 -9 8
-13 0 -13 -6 0 -11 -4 -11 -10 0 -5 7 -10 16 -10 8 0 12 -4 9 -10 -3 -5 -1
-10 5 -10 6 0 9 -4 5 -9 -3 -5 1 -16 9 -24 8 -8 12 -17 9 -21 -4 -3 -1 -6 4
-6 7 0 9 -12 7 -30 -4 -23 -1 -30 10 -30 11 0 16 -9 16 -30 0 -18 5 -29 12
-28 7 2 12 -6 12 -17 0 -11 6 -24 13 -28 8 -5 10 -13 7 -19 -4 -6 -2 -8 4 -4
6 3 17 -2 24 -12 18 -27 113 -27 147 -1 13 11 20 19 15 19 -4 0 0 6 10 13 10
7 18 28 19 47 2 24 7 34 16 32 9 -2 12 4 8 18 -3 12 1 23 10 29 9 5 16 23 16
44 1 20 7 39 14 41 7 3 13 15 13 26 0 11 9 28 19 37 11 9 18 21 15 25 -3 5 9
23 27 41 34 32 59 43 59 26 0 -6 5 -7 10 -4 6 3 10 -1 10 -10 0 -9 4 -14 9
-10 5 3 12 -3 16 -13 4 -14 12 -18 31 -14 17 3 24 0 22 -9 -2 -8 3 -13 10 -11
8 1 11 -2 7 -8 -7 -11 28 -27 39 -19 3 2 11 -5 19 -15 9 -12 20 -17 31 -13 15
6 21 -4 17 -26 -1 -5 3 -6 9 -2 5 3 13 -1 16 -9 3 -9 15 -16 26 -16 11 0 26
-7 34 -14 8 -9 27 -13 44 -11 17 2 30 0 30 -5 0 -5 7 -7 15 -4 8 4 12 10 9 16
-3 5 3 12 15 15 12 3 21 12 21 20 0 8 5 11 10 8 6 -3 10 -1 10 5 0 7 10 20 23
31 12 10 16 18 10 19 -7 0 -13 7 -13 15 0 8 -4 15 -10 15 -5 0 -8 21 -8 48 1
31 -2 46 -10 44 -12 -2 -15 15 -15 72 0 16 -8 37 -19 48 -15 15 -17 22 -7 34
9 11 9 14 0 14 -8 0 -9 5 -2 17 7 13 4 22 -10 34 -11 9 -18 23 -17 30 5 20 31
48 40 43 7 -5 12 9 9 28 0 3 20 5 45 4 25 -1 47 1 50 5 4 7 12 7 49 -1 28 -6
54 1 49 13 -4 11 12 13 73 12 43 0 83 -4 89 -8 6 -3 23 4 38 18 14 13 26 22
26 19 0 -3 8 2 17 11 12 12 17 36 18 81 1 36 0 62 -3 59 -3 -2 -10 2 -16 11
-6 8 -21 16 -33 17 -12 0 -20 4 -18 7 5 8 -22 30 -29 23 -3 -4 -6 1 -6 10 0 9
-7 17 -16 17 -10 0 -14 6 -11 14 4 10 1 13 -8 10 -8 -3 -16 3 -20 15 -3 12 -9
20 -13 18 -10 -5 -42 30 -34 37 3 3 -4 6 -16 6 -12 0 -31 9 -41 19 -11 11 -22
17 -24 14 -3 -3 -4 3 -3 13 2 10 -3 25 -11 33 -8 7 -12 20 -9 27 3 8 0 14 -7
15 -7 0 -2 5 11 11 12 6 22 18 22 26 0 9 6 12 16 8 8 -3 12 -2 9 4 -4 6 1 17
9 26 9 8 16 12 16 8 0 -4 10 4 23 18 12 14 30 24 40 23 13 -3 17 1 13 11 -3 8
-2 13 3 10 4 -3 22 10 38 29 17 19 34 31 38 27 5 -4 5 1 2 11 -4 10 -3 16 1
13 4 -2 23 11 42 31 31 31 35 40 35 94 0 32 -3 59 -7 59 -4 0 -16 9 -27 21
-10 11 -21 16 -25 11 -6 -10 -36 -10 -54 2 -6 4 -12 3 -12 -2 0 -13 -53 -2
-62 13 -5 7 -46 11 -131 10 l-125 -1 -18 28 c-11 15 -25 28 -32 28 -19 0 -11
42 13 62 13 12 15 17 6 18 -9 0 -11 6 -6 18 4 9 7 27 6 39 0 13 4 22 11 20 8
-1 12 14 13 46 0 28 6 51 13 56 8 5 14 32 15 74 1 47 5 67 14 67 7 0 13 5 13
10 0 6 -6 10 -13 10 -7 0 -14 10 -14 22 -1 13 -7 24 -13 26 -5 2 -10 10 -10
18 0 22 -155 20 -164 -2 -3 -8 -11 -12 -17 -8 -7 4 -9 3 -6 -3 8 -13 -12 -30
-33 -28 -8 0 -24 -11 -35 -25 -11 -14 -29 -25 -40 -25 -11 0 -21 -6 -21 -12
-3 -24 -4 -25 -18 -14 -10 9 -21 3 -50 -23 -31 -30 -42 -34 -76 -31 -23 2 -49
13 -62 26 -13 12 -16 18 -8 14 13 -8 13 -7 1 8 -7 9 -10 17 -5 17 5 0 1 5 -8
11 -12 6 -18 22 -18 45 0 20 -6 37 -14 40 -8 3 -13 13 -12 22 2 9 -6 24 -16
34 -11 9 -15 19 -9 22 11 7 -6 56 -18 56 -4 0 -7 10 -8 22 -3 30 -73 94 -84
77 -6 -11 -9 -10 -14 3 -8 21 -32 30 -41 16z m191 -638 c9 -8 32 -14 50 -13
25 0 32 -3 28 -14 -3 -7 -2 -13 3 -12 17 4 63 -20 75 -40 7 -10 19 -17 27 -14
8 4 30 -12 54 -38 23 -24 45 -43 49 -41 5 1 9 -2 9 -7 0 -5 18 -28 40 -51 22
-23 38 -45 35 -50 -3 -4 2 -13 10 -20 8 -7 12 -16 9 -21 -3 -5 0 -9 7 -9 7 0
10 -3 6 -6 -3 -4 4 -15 16 -26 12 -11 16 -17 10 -13 -20 10 -15 -13 5 -31 13
-11 18 -27 16 -59 -2 -36 1 -45 17 -50 11 -4 16 -11 12 -18 -10 -16 -10 -57 0
-57 4 0 3 -9 -3 -20 -6 -12 -7 -20 -1 -20 10 0 9 -19 -2 -37 -5 -7 -4 -13 2
-13 7 0 7 -8 -1 -25 -6 -14 -14 -25 -18 -25 -4 0 -7 -22 -6 -50 2 -35 -2 -50
-11 -50 -12 0 -18 -20 -14 -44 3 -18 -11 -46 -21 -40 -5 4 -8 -2 -6 -14 2 -12
-8 -30 -24 -46 -16 -14 -28 -31 -28 -38 0 -7 -13 -27 -30 -44 -16 -18 -26 -35
-22 -39 4 -4 3 -6 -3 -5 -19 4 -36 0 -32 -7 2 -5 -7 -18 -20 -30 -13 -12 -23
-17 -23 -10 0 7 -4 6 -10 -3 -5 -8 -10 -11 -10 -7 0 4 -14 -7 -31 -24 -25 -25
-33 -29 -40 -18 -7 11 -10 9 -15 -9 -4 -15 -14 -22 -29 -22 -13 0 -25 -5 -27
-12 -2 -6 -20 -12 -39 -13 -48 -3 -51 -4 -44 -14 8 -14 -8 -21 -24 -11 -8 4
-26 4 -41 0 -15 -4 -33 -4 -40 0 -7 5 -24 4 -36 0 -15 -6 -26 -5 -30 1 -4 7
-10 7 -18 0 -7 -6 -16 -8 -20 -4 -9 10 -46 11 -46 2 0 -5 -7 -6 -15 -3 -8 4
-15 11 -15 18 0 7 -20 11 -51 12 -28 1 -54 6 -57 11 -4 6 -16 13 -26 15 -23 4
-64 40 -58 51 2 4 -8 6 -22 3 -14 -3 -26 -1 -26 5 0 14 -33 48 -42 43 -7 -5
-12 10 -9 28 0 5 -2 7 -7 6 -12 -5 -104 90 -98 101 4 5 -2 14 -11 20 -10 6
-14 11 -8 11 5 0 0 7 -12 15 -21 15 -38 65 -21 65 5 0 3 6 -4 14 -7 8 -17 12
-21 9 -5 -3 -8 5 -7 18 4 46 0 69 -11 66 -16 -3 -19 272 -3 281 6 4 15 18 19
31 5 17 4 21 -5 16 -9 -5 -9 -3 -2 11 5 11 8 27 7 37 -2 10 3 17 12 17 9 0 13
8 11 23 -2 13 2 21 10 19 11 -2 17 16 13 45 -1 8 5 10 15 6 14 -5 16 -2 12 15
-3 12 -3 21 1 20 20 -2 31 4 31 18 0 8 4 13 9 10 5 -3 12 2 15 11 4 9 1 20 -6
25 -10 6 -10 8 2 9 8 1 19 1 23 0 5 -1 6 3 3 8 -3 5 2 15 11 22 14 12 16 12 8
-1 -8 -13 -7 -13 10 0 10 8 21 15 24 15 3 0 5 3 4 7 -2 5 4 8 13 8 8 0 13 4 9
9 -3 5 3 12 14 16 11 3 22 13 25 21 3 8 11 12 16 9 6 -4 19 2 28 13 9 10 23
17 30 14 7 -2 19 3 25 11 7 8 23 15 37 14 14 -1 32 5 40 13 21 21 319 22 345
0z"/>
<path d="M1135 1794 c-6 -8 -21 -17 -35 -19 -14 -3 -26 -9 -28 -15 -2 -6 -8
-8 -13 -4 -5 3 -9 0 -9 -6 0 -6 -5 -8 -11 -5 -5 4 -18 -3 -29 -15 -11 -12 -21
-17 -24 -11 -7 11 -46 -22 -46 -37 0 -5 -11 -15 -25 -22 -14 -7 -25 -17 -25
-22 0 -5 -4 -6 -10 -3 -6 4 -7 -1 -3 -11 4 -12 3 -15 -5 -10 -11 7 -18 -21
-12 -49 1 -5 -2 -7 -6 -3 -14 15 -52 -39 -49 -71 2 -20 -2 -31 -10 -31 -7 0
-15 -7 -19 -15 -3 -8 0 -15 6 -15 7 0 7 -4 1 -12 -6 -7 -9 -21 -8 -30 2 -10
-2 -15 -9 -12 -9 3 -13 -17 -14 -76 -1 -53 1 -79 8 -75 9 6 14 -8 11 -27 0 -5
4 -8 10 -8 8 0 7 -5 -1 -15 -10 -11 -10 -19 -2 -27 6 -6 8 -17 5 -24 -3 -8 1
-14 10 -14 9 0 14 -7 12 -17 -1 -10 6 -26 17 -37 16 -15 17 -20 6 -27 -10 -7
-10 -9 0 -9 7 0 10 -4 7 -10 -4 -6 1 -7 12 -3 10 3 15 3 11 -2 -4 -4 0 -15 10
-24 9 -9 18 -23 20 -31 2 -8 8 -16 13 -18 5 -2 9 -10 9 -18 0 -9 4 -13 9 -10
5 3 15 -2 22 -11 12 -14 12 -16 0 -8 -9 5 -12 4 -7 -3 3 -6 16 -9 27 -7 11 2
22 -2 26 -10 3 -8 11 -15 19 -15 8 0 14 -6 14 -14 0 -8 5 -18 12 -22 6 -4 8
-3 4 4 -4 6 1 10 13 9 11 0 22 -9 24 -18 3 -12 13 -16 36 -13 23 3 33 -2 42
-18 9 -17 13 -18 20 -7 8 12 11 12 19 -1 8 -12 10 -12 10 -1 0 11 3 11 15 1 8
-7 15 -8 15 -4 0 10 63 10 79 -1 6 -3 11 -1 11 6 0 8 4 8 15 -1 12 -10 15 -10
15 1 0 12 2 12 9 0 7 -11 10 -11 15 0 5 11 7 12 12 1 5 -10 9 -9 18 3 6 9 18
17 26 18 8 2 21 7 29 11 10 7 12 6 6 -4 -5 -8 6 -4 23 9 18 12 36 20 41 17 5
-3 11 1 15 9 3 8 17 15 31 15 15 0 24 4 20 10 -3 6 4 14 17 19 13 6 20 10 16
10 -4 1 17 25 47 54 30 29 55 60 55 68 0 14 40 55 51 52 10 -3 4 42 -6 49 -6
5 -5 8 3 8 7 0 11 4 8 9 -3 5 1 11 8 14 11 5 14 25 13 86 -1 45 1 81 5 81 4 0
3 13 -2 29 -6 21 -5 31 3 35 9 3 9 5 0 5 -6 1 -9 10 -6 20 3 11 -4 28 -16 40
-12 12 -16 21 -9 21 9 0 9 3 0 12 -8 8 -8 15 -1 24 7 9 4 14 -11 19 -11 4 -20
12 -19 18 3 25 -1 38 -11 32 -5 -3 -10 1 -10 10 0 9 -4 13 -10 10 -5 -3 -10 0
-10 7 0 7 -9 19 -19 25 -12 8 -17 19 -14 31 5 22 -13 39 -47 44 -14 1 -25 10
-25 18 0 8 -8 14 -17 12 -9 -1 -18 7 -22 20 -3 13 -9 19 -13 13 -11 -13 -36
-18 -28 -5 3 5 1 10 -5 10 -6 0 -9 4 -6 8 3 5 -12 8 -32 8 -25 -1 -42 5 -54
19 -13 15 -17 16 -18 6 0 -11 -3 -12 -12 -3 -7 7 -17 8 -30 1 -10 -5 -18 -6
-18 -1 0 10 -30 9 -47 -1 -6 -4 -13 -2 -15 5 -3 8 -9 8 -23 0 -13 -7 -26 -7
-37 -1 -12 7 -18 6 -18 -1 0 -8 -6 -8 -20 0 -15 8 -20 8 -20 -1 0 -8 -4 -8
-13 -1 -9 8 -15 7 -22 -4z m530 -124 c3 -6 -1 -7 -9 -4 -18 7 -21 14 -7 14 6
0 13 -4 16 -10z"/>
</g>
</svg>
