<?xml version="1.0" standalone="no"?>
<!DOCTYPE svg PUBLIC "-//W3C//DTD SVG 20010904//EN"
 "http://www.w3.org/TR/2001/REC-SVG-20010904/DTD/svg10.dtd">
<svg version="1.0" xmlns="http://www.w3.org/2000/svg"
 width="512.000000pt" height="512.000000pt" viewBox="0 0 512.000000 512.000000"
 preserveAspectRatio="xMidYMid meet">
<metadata>
Created by potrace 1.11, written by Peter Selinger 2001-2013
</metadata>
<g transform="translate(0.000000,512.000000) scale(0.100000,-0.100000)"
fill="#000000" stroke="none">
<path d="M2438 5020 c-36 -25 -88 -88 -88 -108 0 -5 -12 -35 -26 -66 -14 -31
-27 -62 -28 -69 -2 -7 -8 -23 -13 -37 -6 -14 -21 -50 -32 -80 -12 -30 -29 -70
-38 -89 -8 -18 -16 -39 -17 -45 -1 -6 -12 -33 -24 -60 -12 -27 -22 -53 -22
-58 0 -13 -50 -110 -71 -136 -22 -29 -77 -58 -121 -64 -37 -6 -96 15 -153 53
-22 14 -83 52 -135 84 -52 32 -117 73 -145 90 -27 18 -70 44 -95 59 -25 15
-77 46 -115 70 -61 37 -77 42 -125 41 -111 -1 -195 -77 -202 -180 0 -12 5 -38
27 -130 9 -38 19 -79 21 -90 3 -11 7 -31 10 -45 3 -14 9 -39 14 -55 6 -17 17
-62 25 -100 19 -86 20 -89 35 -145 15 -56 20 -77 26 -115 3 -16 7 -36 9 -43
12 -33 -9 -95 -44 -131 -47 -50 -104 -69 -226 -76 -55 -4 -131 -8 -170 -11
-38 -3 -77 -5 -85 -5 -90 -4 -276 -21 -317 -30 -35 -7 -67 -22 -94 -45 -22
-19 -38 -34 -34 -34 4 0 0 -11 -9 -25 -10 -14 -20 -47 -23 -74 -7 -65 20 -115
103 -188 37 -32 80 -71 95 -86 16 -15 29 -25 29 -22 0 3 10 -5 22 -17 13 -13
72 -64 132 -113 60 -50 130 -109 155 -132 25 -24 48 -43 51 -43 12 0 52 -81
46 -95 -3 -8 -1 -15 3 -15 13 0 -9 -81 -30 -110 -9 -14 -58 -59 -108 -100 -50
-41 -91 -78 -91 -82 0 -5 -5 -8 -11 -8 -7 0 -19 -8 -28 -18 -9 -9 -70 -62
-136 -116 -209 -173 -241 -215 -232 -297 3 -26 15 -65 25 -86 46 -89 92 -105
342 -118 30 -1 55 -3 55 -4 0 -1 29 -3 65 -5 117 -6 365 -28 380 -33 8 -4 20
-7 27 -9 24 -5 83 -60 95 -88 16 -39 14 -151 -4 -162 -4 -3 -6 -9 -3 -13 2 -5
-4 -38 -15 -75 -10 -36 -16 -66 -13 -66 3 0 1 -6 -4 -12 -6 -7 -11 -20 -11
-28 0 -17 -3 -28 -27 -120 -9 -36 -18 -72 -20 -81 -3 -16 -32 -137 -42 -179
-4 -14 -8 -36 -9 -49 -2 -13 -5 -30 -8 -38 -3 -7 -1 -13 3 -13 5 0 8 -8 6 -17
-3 -22 70 -125 82 -115 2 1 17 -5 34 -13 41 -22 97 -26 135 -10 41 17 202 114
210 126 3 5 10 7 15 4 5 -4 9 -2 9 3 0 4 19 19 43 32 23 12 57 34 75 47 17 13
32 20 32 16 0 -4 4 -3 8 2 7 11 170 115 179 115 3 0 18 9 34 21 16 11 29 17
29 13 0 -3 6 -2 13 3 17 14 97 10 127 -6 28 -15 74 -62 90 -91 13 -24 130
-316 132 -330 1 -3 14 -34 30 -68 15 -35 28 -68 28 -73 0 -4 11 -32 24 -61 13
-29 28 -64 33 -78 6 -14 23 -40 38 -58 70 -83 220 -84 289 -1 28 33 66 101 66
117 0 5 12 36 27 68 15 33 28 64 29 70 1 6 9 27 18 46 9 19 18 43 20 54 2 11
18 48 34 82 17 34 29 62 27 62 -8 0 64 159 89 197 36 54 91 81 154 78 27 -1
62 -10 78 -19 41 -23 68 -40 74 -47 3 -3 25 -16 50 -30 25 -13 47 -27 50 -30
3 -4 21 -16 41 -27 77 -43 84 -47 89 -53 3 -3 23 -16 45 -29 22 -13 43 -29 47
-34 4 -6 8 -7 8 -2 0 5 10 0 23 -11 12 -11 27 -22 32 -24 6 -2 42 -23 80 -46
93 -56 134 -61 213 -23 44 20 68 39 85 67 35 56 38 80 21 153 -9 36 -18 74
-19 85 -2 11 -4 20 -5 20 -1 0 -3 11 -5 25 -2 14 -11 52 -21 85 -9 33 -18 69
-20 80 -1 11 -3 20 -4 20 -1 0 -3 7 -5 15 -1 8 -13 56 -25 105 -12 50 -23 97
-25 105 -2 8 -11 46 -20 83 -22 95 -3 150 68 201 39 27 50 29 244 47 112 10
245 21 296 24 51 3 124 7 164 9 40 3 87 12 105 22 41 20 88 63 88 80 0 7 4 14
10 16 5 2 13 31 16 65 9 83 -8 116 -98 195 -40 35 -85 75 -101 91 -16 15 -32
27 -36 27 -4 0 -17 10 -28 23 -11 12 -31 31 -43 41 -13 10 -62 50 -109 89
-133 108 -184 155 -198 183 -18 35 -23 86 -12 128 11 42 48 84 142 161 27 22
59 49 70 60 12 11 74 63 137 115 263 217 286 244 277 337 -12 134 -81 184
-277 198 -47 3 -116 8 -155 11 -38 3 -97 7 -131 8 -33 2 -65 5 -70 7 -5 3 -33
4 -61 4 -29 -1 -53 1 -53 4 0 4 -20 5 -44 3 -54 -5 -137 29 -171 70 -39 46
-48 97 -31 165 8 32 17 69 20 83 7 36 12 57 30 125 9 33 19 74 22 90 2 17 14
63 25 104 12 40 22 85 24 100 2 14 13 62 24 106 22 86 19 117 -14 171 -19 32
-69 72 -81 66 -4 -2 -10 2 -15 9 -5 9 -29 13 -66 13 -57 0 -92 -11 -158 -53
-36 -22 -119 -74 -257 -160 -187 -116 -233 -145 -240 -156 -4 -5 -8 -7 -8 -2
0 4 -15 0 -32 -9 -44 -23 -110 -19 -157 8 -54 31 -90 93 -147 253 -8 22 -19
49 -24 60 -19 41 -74 180 -76 191 -1 5 -13 35 -26 65 -14 30 -33 75 -43 102
-10 26 -21 47 -25 47 -4 0 -11 11 -14 25 -4 14 -11 23 -16 20 -5 -3 -15 3 -22
13 -17 25 -51 35 -122 37 -48 1 -66 -4 -98 -25z m302 -1160 c25 -6 59 -12 75
-15 69 -12 83 -16 154 -40 71 -25 251 -111 261 -124 3 -4 38 -29 78 -55 83
-55 247 -215 294 -287 17 -27 34 -49 38 -49 3 0 14 -15 23 -32 10 -18 31 -58
48 -88 59 -107 148 -358 134 -381 -3 -4 -1 -10 4 -14 5 -3 8 -14 6 -25 -2 -11
-1 -22 3 -24 13 -8 5 -401 -8 -401 -1 0 -3 -16 -6 -35 -2 -19 -12 -60 -21 -90
-9 -30 -17 -57 -17 -60 -1 -3 -7 -18 -13 -35 -24 -57 -36 -90 -38 -95 0 -3
-12 -25 -25 -50 -13 -25 -24 -47 -25 -50 -1 -11 -88 -135 -96 -138 -5 -2 -9
-10 -9 -17 0 -19 -263 -281 -266 -265 0 3 -9 -3 -19 -13 -10 -10 -37 -30 -59
-44 -23 -14 -43 -29 -46 -32 -9 -11 -135 -70 -216 -100 -85 -33 -252 -73 -266
-65 -4 3 -8 2 -8 -3 0 -4 -30 -9 -68 -10 -37 -1 -85 -3 -108 -4 -22 -1 -44 0
-50 3 -5 3 -37 5 -71 4 -35 -1 -63 2 -63 7 0 4 -4 6 -8 3 -6 -4 -91 13 -192
38 -90 23 -337 146 -370 186 -3 3 -17 13 -31 22 -55 35 -167 139 -225 208 -32
40 -65 78 -71 86 -7 7 -13 17 -13 22 0 5 -11 22 -24 37 -25 29 -124 221 -131
253 -2 9 -12 42 -23 72 -11 30 -23 74 -26 98 -3 24 -8 47 -11 51 -2 5 -9 60
-15 122 -8 103 -2 261 15 349 2 14 7 41 10 60 11 62 67 213 113 305 25 50 49
92 52 95 3 3 24 32 46 65 44 65 94 122 163 188 24 23 59 57 77 75 19 18 34 29
34 26 0 -4 12 5 26 20 15 14 31 26 36 26 9 0 68 39 78 51 6 8 93 52 100 51 3
-1 15 6 27 14 29 18 203 80 223 79 8 -1 21 3 28 8 6 5 12 7 12 4 0 -3 17 -1
38 5 100 25 336 29 442 8z"/>
<path d="M2419 3556 c-2 -3 -24 -7 -49 -10 -66 -8 -82 -12 -159 -40 -215 -78
-396 -218 -515 -401 -37 -56 -109 -195 -102 -195 3 0 -4 -21 -14 -46 -19 -44
-32 -93 -32 -124 -1 -8 -4 -19 -8 -25 -10 -12 -6 -315 4 -365 29 -146 141
-374 228 -464 13 -13 30 -32 39 -42 22 -26 112 -102 157 -132 20 -14 40 -30
43 -35 3 -5 8 -8 10 -7 2 1 42 -16 89 -39 137 -65 261 -94 415 -96 98 -1 149
3 210 17 44 11 91 22 105 25 14 3 68 26 120 51 52 25 98 46 101 46 4 1 21 12
39 26 134 101 178 143 244 230 22 30 44 57 47 60 15 12 102 198 119 254 37
126 44 172 43 311 -1 112 -5 156 -23 220 -12 44 -22 86 -23 93 0 6 -4 12 -9
12 -5 0 -7 4 -4 8 5 9 -82 186 -116 236 -31 44 -54 69 -135 150 -82 80 -83 81
-139 118 -117 75 -253 130 -385 153 -76 14 -290 21 -300 11z"/>
</g>
</svg>
